<svg aria-hidden="true" style="position: absolute; width: 0; height: 0; overflow: hidden;" version="1.1" xmlns="http://www.w3.org/2000/svg" xmlns:xlink="http://www.w3.org/1999/xlink">
<defs>
<symbol id="icon-X" viewBox="0 0 32 32">
<path  d="M26.667 9.081l-1.97-1.97-7.808 7.808-7.808-7.808-1.97 1.97 7.808 7.808-7.808 7.808 1.97 1.97 7.808-7.808 7.808 7.808 1.97-1.97-7.808-7.808 7.808-7.808z"></path>
</symbol>
<symbol id="icon-check-box" viewBox="0 0 32 32">
<path fill="#2196f3" style="fill: var(--color1, #2196f3)" d="M8 0.667h16c1.473 0 2.667 1.194 2.667 2.667v14.667c0 1.473-1.194 2.667-2.667 2.667h-16c-1.473 0-2.667-1.194-2.667-2.667v-14.667c0-1.473 1.194-2.667 2.667-2.667z"></path>
<path fill="#fff" style="fill: var(--color2, #fff)" d="M10.609 11.003l-0.092-0.088-0.092 0.087-1.285 1.219 0.101 0.097 4.753 4.533 0.092-0.088 10.107-9.641-0.101-0.096-1.268-1.209-0.092 0.088-8.737 8.328-3.385-3.229z"></path>
</symbol>
<symbol id="icon-TG" viewBox="0 0 32 32">
<path d="M32 0l-32 18 10.227 3.787 15.773-14.787-11.997 16.187 0.009 0.003-0.012-0.003v8.813l5.735-6.691 7.267 2.691 4.999-28z"></path>
</symbol>
<symbol id="icon-phone" viewBox="0 0 32 32">
<path d="M27.419 20.853l-4.201-0.48c-0.116-0.014-0.25-0.023-0.385-0.023-0.909 0-1.732 0.369-2.328 0.964l-3.045 3.045c-4.718-2.435-8.467-6.185-10.835-10.764l-0.065-0.139 3.063-3.056c0.596-0.596 0.964-1.419 0.964-2.328 0-0.136-0.008-0.27-0.024-0.401l0.002 0.016-0.48-4.169c-0.199-1.655-1.595-2.926-3.287-2.926-0.001 0-0.003 0-0.004 0h-2.861c-1.87-0.002-3.424 1.552-3.31 3.422 0.878 14.126 12.176 25.406 26.286 26.283 1.867 0.114 3.424-1.44 3.424-3.31v-2.862c0-0.005 0-0.010 0-0.016 0-1.681-1.266-3.067-2.897-3.256l-0.015-0.001z"></path>
</symbol>
<symbol id="icon-Envelope" viewBox="0 0 32 32">
<path d="M28 4h-24c-1.65 0-2.986 1.35-2.986 3l-0.014 18c0 1.65 1.35 3 3 3h24c1.65 0 3-1.35 3-3v-18c0-1.65-1.35-3-3-3zM27.4 10.376l-10.604 6.628c-0.226 0.141-0.501 0.225-0.795 0.225s-0.569-0.084-0.801-0.229l0.006 0.004-10.606-6.63c-0.378-0.226-0.627-0.632-0.627-1.097 0-0.704 0.57-1.274 1.274-1.274 0.262 0 0.505 0.079 0.707 0.214l-0.005-0.003 10.050 6.286 10.050-6.286c0.198-0.132 0.441-0.211 0.703-0.211 0.704 0 1.274 0.57 1.274 1.274 0 0.465-0.249 0.871-0.621 1.094l-0.006 0.003z"></path>
</symbol>
<symbol id="icon-square" viewBox="0 0 32 32">
<path d="M28.444 4.334v23.332h-24.888v-23.332h24.888zM28.444 1h-24.888c-1.956 0-3.556 1.5-3.556 3.334v23.332c0 1.834 1.6 3.334 3.556 3.334h24.888c1.956 0 3.556-1.5 3.556-3.334v-23.332c0-1.834-1.6-3.334-3.556-3.334z"></path>
</symbol>
<symbol id="icon-dude" viewBox="0 0 32 32">
<path  d="M16 16c4.418 0 8-3.582 8-8s-3.582-8-8-8v0c-4.418 0-8 3.582-8 8s3.582 8 8 8v0zM16 20c-5.339 0-16 2.68-16 8v2c0 1.099 0.901 2 2 2h28c1.099 0 2-0.901 2-2v-2c0-5.32-10.661-8-16-8z"></path>
</symbol>
</defs>
</svg>
<svg aria-hidden="true" style="position: absolute; width: 0; height: 0; overflow: hidden;" version="1.1" xmlns="http://www.w3.org/2000/svg" xmlns:xlink="http://www.w3.org/1999/xlink">
<defs>
</defs>
</svg>
